# xmcd
#
# Track frame offsets:
#	150
#	21415
#	40322
#	56065
#	76805
#	90412
#	107050
#	125453
#	136809
#	156564
#	168387
#
# Disc length: 2432 seconds
#
# Revision: 6
# Processed by: cddbd v1.5.2PL0 Copyright (c) Steve Scherf et al.
# Submitted via: audiograbber 1.83.01
#
DISCID=8c097e0b
DTITLE=Rivoli, Ron and Kay - Take Me Home
DYEAR=2006
DGENRE=Country Gospel
TTITLE0=Take Me Home
TTITLE1=I Can Only Imagine
TTITLE2=He's Not Fair
TTITLE3=Who Am I
TTITLE4=Claim It
TTITLE5=Brandon's Song (Do You Know Where You're Going?)
TTITLE6=Glorify The Lord
TTITLE7=To Know Him
TTITLE8=I've Waited All My Life
TTITLE9=Roll On
TTITLE10=He'S Got The Whole World In His Hands
EXTD=
EXTT0=
EXTT1=
EXTT2=
EXTT3=
EXTT4=
EXTT5=
EXTT6=
EXTT7=
EXTT8=
EXTT9=
EXTT10=
PLAYORDER=
